<?xml version="1.0" encoding="UTF-8" standalone="no"?>
<!DOCTYPE svg PUBLIC "-//W3C//DTD SVG 1.1//EN" "http://www.w3.org/Graphics/SVG/1.1/DTD/svg11.dtd">
<svg width="100%" height="100%" viewBox="0 0 500 500" version="1.1" xmlns="http://www.w3.org/2000/svg" xmlns:xlink="http://www.w3.org/1999/xlink" xml:space="preserve" xmlns:serif="http://www.serif.com/" style="fill-rule:evenodd;clip-rule:evenodd;stroke-linejoin:round;stroke-miterlimit:2;">
    <g>
        <g>
            <g>
                <path d="M384.2,123.9L303,42.7L221.8,123.9L303,205.1L303,123.9C303,123.9 385.6,122.6 384.2,123.9Z" style="fill:rgb(162,162,162);fill-rule:nonzero;"/>
            </g>
        </g>
        <g>
            <g>
                <path d="M434.2,255.1L434.2,140.3L319.4,140.3L319.4,255.1L376.8,197.7C376.8,197.7 436.1,255.1 434.2,255.1Z" style="fill:rgb(162,162,162);fill-rule:nonzero;"/>
            </g>
        </g>
        <g>
            <g>
                <path d="M376.8,383.3L458,302.1L376.8,220.9L295.6,302.1L376.8,302.1C376.8,302.1 378.1,384.6 376.8,383.3Z" style="fill:rgb(162,162,162);fill-rule:nonzero;"/>
            </g>
        </g>
        <g>
            <g>
                <path d="M245.6,433.3L360.4,433.3L360.4,318.4L245.6,318.4L303,375.8C303,375.9 245.6,435.2 245.6,433.3Z" style="fill:rgb(162,162,162);fill-rule:nonzero;"/>
            </g>
        </g>
        <g>
            <g>
                <path d="M117.4,375.9L198.6,457.1L279.8,375.9L198.6,294.7L198.6,375.9C198.7,375.9 116.1,377.2 117.4,375.9Z" style="fill:rgb(162,162,162);fill-rule:nonzero;"/>
            </g>
        </g>
        <g>
            <g>
                <path d="M67.4,244.7L67.4,359.5L182.3,359.5L182.3,244.7L124.9,302.1C124.9,302.1 65.5,244.7 67.4,244.7Z" style="fill:rgb(162,162,162);fill-rule:nonzero;"/>
            </g>
        </g>
        <g>
            <g>
                <path d="M124.9,116.5L43.7,197.7L124.9,278.9L206.1,197.7L124.9,197.7C124.9,197.7 123.5,115.2 124.9,116.5Z" style="fill:rgb(162,162,162);fill-rule:nonzero;"/>
            </g>
        </g>
        <g>
            <g>
                <path d="M256.1,181.4L141.2,181.4L141.2,66.5L256.1,66.5L198.7,123.9L256.1,181.4Z" style="fill:url(#_Linear1);fill-rule:nonzero;"/>
            </g>
        </g>
    </g>
    <defs>
        <linearGradient id="_Linear1" x1="0" y1="0" x2="1" y2="0" gradientUnits="userSpaceOnUse" gradientTransform="matrix(-114.9,114.9,-114.9,-114.9,256.1,66.5)"><stop offset="0" style="stop-color:rgb(239,72,87);stop-opacity:1"/><stop offset="0" style="stop-color:rgb(239,72,87);stop-opacity:1"/><stop offset="0.47" style="stop-color:rgb(210,17,236);stop-opacity:1"/><stop offset="1" style="stop-color:rgb(127,82,255);stop-opacity:1"/></linearGradient>
    </defs>
</svg>
